<svg id="Capa_1" data-name="Capa 1" xmlns="http://www.w3.org/2000/svg" viewBox="0 0 1080 1920"><defs><style>.cls-1{fill:#9f1d2b;}.cls-2{fill:#b24a55;}</style></defs><rect class="cls-1" width="1080" height="1920"/><path class="cls-2" d="M1080,1124.2v-45.29H595.46v242.27H388.28l-8.51,2-7.26,5.08-224,185.86.09.12-1.86,1.8-118.42-108L0,1437.77l147,130.85,28-22.48.12.14,8.91-7.38h0l208.26-172.43H595.46v202.15H388.28L148.5,1666.89,0,1608.75V1656l148.5,59.55,239.78-101.63H595.46v196.41h42.92V1608.75H837.73v201.57h42.92V1608.75H1080v-45.3H880.65v-197H1080v-45.29H880.65v-197ZM837.73,1563.45H638.38v-197H837.73Zm0-242.27H638.38v-197H837.73Z"/></svg>